<mxfile host="app.diagrams.net" agent="Mozilla/5.0 (Macintosh; Intel Mac OS X 10_15_7) AppleWebKit/537.36 (KHTML, like Gecko) Chrome/137.0.0.0 Safari/537.36" version="25.0.1">
  <diagram name="Page-1" id="Mif_CYvuFt7nbkchPlpj">
    <mxGraphModel dx="1140" dy="722" grid="1" gridSize="10" guides="1" tooltips="1" connect="1" arrows="1" fold="1" page="1" pageScale="1" pageWidth="850" pageHeight="1100" math="0" shadow="0">
      <root>
        <mxCell id="0" />
        <mxCell id="1" parent="0" />
        <mxCell id="LcS4A14C7uai0QJFWlxs-5" style="edgeStyle=orthogonalEdgeStyle;rounded=0;orthogonalLoop=1;jettySize=auto;html=1;exitX=1;exitY=0.5;exitDx=0;exitDy=0;entryX=0;entryY=0.5;entryDx=0;entryDy=0;" edge="1" parent="1" source="LcS4A14C7uai0QJFWlxs-1" target="LcS4A14C7uai0QJFWlxs-2">
          <mxGeometry relative="1" as="geometry" />
        </mxCell>
        <mxCell id="LcS4A14C7uai0QJFWlxs-1" value="&lt;b&gt;Teams&lt;/b&gt;&lt;div&gt;(maps to PostgreSQL teams table)&lt;/div&gt;" style="rounded=0;whiteSpace=wrap;html=1;" vertex="1" parent="1">
          <mxGeometry x="35" y="240" width="120" height="60" as="geometry" />
        </mxCell>
        <mxCell id="LcS4A14C7uai0QJFWlxs-6" style="edgeStyle=orthogonalEdgeStyle;rounded=0;orthogonalLoop=1;jettySize=auto;html=1;exitX=1;exitY=0.5;exitDx=0;exitDy=0;" edge="1" parent="1" source="LcS4A14C7uai0QJFWlxs-2" target="LcS4A14C7uai0QJFWlxs-4">
          <mxGeometry relative="1" as="geometry" />
        </mxCell>
        <mxCell id="LcS4A14C7uai0QJFWlxs-2" value="&lt;b&gt;TeamsRepo&lt;/b&gt;&lt;div&gt;(save new, query, update/delete teams)&lt;/div&gt;" style="rounded=0;whiteSpace=wrap;html=1;" vertex="1" parent="1">
          <mxGeometry x="340" y="240" width="120" height="60" as="geometry" />
        </mxCell>
        <mxCell id="LcS4A14C7uai0QJFWlxs-4" value="Database" style="shape=cylinder3;whiteSpace=wrap;html=1;boundedLbl=1;backgroundOutline=1;size=15;" vertex="1" parent="1">
          <mxGeometry x="670" y="300" width="60" height="80" as="geometry" />
        </mxCell>
        <mxCell id="LcS4A14C7uai0QJFWlxs-9" style="edgeStyle=orthogonalEdgeStyle;rounded=0;orthogonalLoop=1;jettySize=auto;html=1;exitX=0.92;exitY=0.5;exitDx=0;exitDy=0;exitPerimeter=0;entryX=0;entryY=0.5;entryDx=0;entryDy=0;" edge="1" parent="1" source="LcS4A14C7uai0QJFWlxs-11" target="LcS4A14C7uai0QJFWlxs-8">
          <mxGeometry relative="1" as="geometry" />
        </mxCell>
        <mxCell id="LcS4A14C7uai0QJFWlxs-7" value="&lt;b&gt;Client&lt;/b&gt; (Postman)" style="sketch=0;aspect=fixed;pointerEvents=1;shadow=0;dashed=0;html=1;strokeColor=none;labelPosition=center;verticalLabelPosition=bottom;verticalAlign=top;align=center;fillColor=#00188D;shape=mxgraph.azure.laptop" vertex="1" parent="1">
          <mxGeometry x="20" y="445" width="150" height="90" as="geometry" />
        </mxCell>
        <mxCell id="LcS4A14C7uai0QJFWlxs-19" style="edgeStyle=orthogonalEdgeStyle;rounded=0;orthogonalLoop=1;jettySize=auto;html=1;exitX=0.5;exitY=0;exitDx=0;exitDy=0;" edge="1" parent="1" source="LcS4A14C7uai0QJFWlxs-8">
          <mxGeometry relative="1" as="geometry">
            <mxPoint x="340" y="410" as="targetPoint" />
          </mxGeometry>
        </mxCell>
        <mxCell id="LcS4A14C7uai0QJFWlxs-8" value="&lt;b&gt;TeamsController&amp;nbsp;&lt;/b&gt;" style="rounded=0;whiteSpace=wrap;html=1;" vertex="1" parent="1">
          <mxGeometry x="280" y="460" width="120" height="60" as="geometry" />
        </mxCell>
        <mxCell id="LcS4A14C7uai0QJFWlxs-12" value="" style="edgeStyle=orthogonalEdgeStyle;rounded=0;orthogonalLoop=1;jettySize=auto;html=1;exitX=0.92;exitY=0.5;exitDx=0;exitDy=0;exitPerimeter=0;entryX=0;entryY=0.5;entryDx=0;entryDy=0;" edge="1" parent="1" source="LcS4A14C7uai0QJFWlxs-7" target="LcS4A14C7uai0QJFWlxs-11">
          <mxGeometry relative="1" as="geometry">
            <mxPoint x="203" y="445" as="sourcePoint" />
            <mxPoint x="280" y="445" as="targetPoint" />
          </mxGeometry>
        </mxCell>
        <mxCell id="LcS4A14C7uai0QJFWlxs-11" value="Get/Post" style="text;html=1;align=center;verticalAlign=middle;whiteSpace=wrap;rounded=0;" vertex="1" parent="1">
          <mxGeometry x="190" y="475" width="60" height="30" as="geometry" />
        </mxCell>
        <mxCell id="LcS4A14C7uai0QJFWlxs-20" style="edgeStyle=orthogonalEdgeStyle;rounded=0;orthogonalLoop=1;jettySize=auto;html=1;entryX=0.5;entryY=1;entryDx=0;entryDy=0;" edge="1" parent="1" target="LcS4A14C7uai0QJFWlxs-2">
          <mxGeometry relative="1" as="geometry">
            <mxPoint x="340" y="360" as="sourcePoint" />
          </mxGeometry>
        </mxCell>
        <mxCell id="LcS4A14C7uai0QJFWlxs-13" value="Asks to fetch/save data" style="text;html=1;align=center;verticalAlign=middle;whiteSpace=wrap;rounded=0;" vertex="1" parent="1">
          <mxGeometry x="310" y="370" width="60" height="30" as="geometry" />
        </mxCell>
        <mxCell id="LcS4A14C7uai0QJFWlxs-32" style="edgeStyle=orthogonalEdgeStyle;rounded=0;orthogonalLoop=1;jettySize=auto;html=1;exitX=1;exitY=0.5;exitDx=0;exitDy=0;exitPerimeter=0;" edge="1" parent="1" source="LcS4A14C7uai0QJFWlxs-23">
          <mxGeometry relative="1" as="geometry">
            <mxPoint x="620" y="140" as="targetPoint" />
            <Array as="points">
              <mxPoint x="620" y="90" />
            </Array>
          </mxGeometry>
        </mxCell>
        <mxCell id="LcS4A14C7uai0QJFWlxs-23" value="V1__init.sql" style="whiteSpace=wrap;html=1;shape=mxgraph.basic.document" vertex="1" parent="1">
          <mxGeometry x="360" y="40" width="100" height="100" as="geometry" />
        </mxCell>
        <mxCell id="LcS4A14C7uai0QJFWlxs-26" value="&lt;b&gt;Flyway&lt;/b&gt; (in application properties)" style="shape=step;perimeter=stepPerimeter;whiteSpace=wrap;html=1;fixedSize=1;" vertex="1" parent="1">
          <mxGeometry x="35" y="50" width="175" height="80" as="geometry" />
        </mxCell>
        <mxCell id="LcS4A14C7uai0QJFWlxs-29" style="edgeStyle=orthogonalEdgeStyle;rounded=0;orthogonalLoop=1;jettySize=auto;html=1;exitX=1;exitY=0.5;exitDx=0;exitDy=0;entryX=0;entryY=0.5;entryDx=0;entryDy=0;entryPerimeter=0;" edge="1" parent="1" source="LcS4A14C7uai0QJFWlxs-26" target="LcS4A14C7uai0QJFWlxs-23">
          <mxGeometry relative="1" as="geometry" />
        </mxCell>
        <mxCell id="LcS4A14C7uai0QJFWlxs-30" value="Ensures correct table is in database" style="text;html=1;align=center;verticalAlign=middle;whiteSpace=wrap;rounded=0;" vertex="1" parent="1">
          <mxGeometry x="590" y="150" width="60" height="30" as="geometry" />
        </mxCell>
        <mxCell id="LcS4A14C7uai0QJFWlxs-34" style="edgeStyle=orthogonalEdgeStyle;rounded=0;orthogonalLoop=1;jettySize=auto;html=1;entryX=0.5;entryY=0;entryDx=0;entryDy=0;entryPerimeter=0;" edge="1" parent="1" target="LcS4A14C7uai0QJFWlxs-4">
          <mxGeometry relative="1" as="geometry">
            <mxPoint x="620" y="200" as="sourcePoint" />
          </mxGeometry>
        </mxCell>
        <mxCell id="LcS4A14C7uai0QJFWlxs-38" style="edgeStyle=orthogonalEdgeStyle;rounded=0;orthogonalLoop=1;jettySize=auto;html=1;entryX=0;entryY=0.5;entryDx=0;entryDy=0;" edge="1" parent="1" target="LcS4A14C7uai0QJFWlxs-36">
          <mxGeometry relative="1" as="geometry">
            <mxPoint x="185" y="760" as="sourcePoint" />
          </mxGeometry>
        </mxCell>
        <mxCell id="LcS4A14C7uai0QJFWlxs-35" value="MessageSenderController" style="rounded=0;whiteSpace=wrap;html=1;" vertex="1" parent="1">
          <mxGeometry x="20" y="730" width="165" height="60" as="geometry" />
        </mxCell>
        <mxCell id="LcS4A14C7uai0QJFWlxs-39" style="edgeStyle=orthogonalEdgeStyle;rounded=0;orthogonalLoop=1;jettySize=auto;html=1;" edge="1" parent="1" source="LcS4A14C7uai0QJFWlxs-36" target="LcS4A14C7uai0QJFWlxs-37">
          <mxGeometry relative="1" as="geometry" />
        </mxCell>
        <mxCell id="LcS4A14C7uai0QJFWlxs-36" value="Sends message" style="text;html=1;align=center;verticalAlign=middle;whiteSpace=wrap;rounded=0;" vertex="1" parent="1">
          <mxGeometry x="237.5" y="745" width="60" height="30" as="geometry" />
        </mxCell>
        <mxCell id="LcS4A14C7uai0QJFWlxs-37" value="ActiveMQ: gameStatsQueue" style="outlineConnect=0;dashed=0;verticalLabelPosition=bottom;verticalAlign=top;align=center;html=1;shape=mxgraph.aws3.queue;fillColor=#D9A741;gradientColor=none;" vertex="1" parent="1">
          <mxGeometry x="347.5" y="725" width="100" height="70" as="geometry" />
        </mxCell>
        <mxCell id="LcS4A14C7uai0QJFWlxs-49" style="edgeStyle=orthogonalEdgeStyle;rounded=0;orthogonalLoop=1;jettySize=auto;html=1;" edge="1" parent="1" source="LcS4A14C7uai0QJFWlxs-44">
          <mxGeometry relative="1" as="geometry">
            <mxPoint x="450" y="760" as="targetPoint" />
          </mxGeometry>
        </mxCell>
        <mxCell id="LcS4A14C7uai0QJFWlxs-44" value="Listens to queue with JMS Listener" style="text;html=1;align=center;verticalAlign=middle;whiteSpace=wrap;rounded=0;" vertex="1" parent="1">
          <mxGeometry x="520" y="745" width="60" height="30" as="geometry" />
        </mxCell>
        <mxCell id="LcS4A14C7uai0QJFWlxs-48" style="edgeStyle=orthogonalEdgeStyle;rounded=0;orthogonalLoop=1;jettySize=auto;html=1;exitX=0;exitY=0.5;exitDx=0;exitDy=0;entryX=1;entryY=0.5;entryDx=0;entryDy=0;" edge="1" parent="1" source="LcS4A14C7uai0QJFWlxs-46" target="LcS4A14C7uai0QJFWlxs-44">
          <mxGeometry relative="1" as="geometry" />
        </mxCell>
        <mxCell id="LcS4A14C7uai0QJFWlxs-53" style="edgeStyle=orthogonalEdgeStyle;rounded=0;orthogonalLoop=1;jettySize=auto;html=1;exitX=0.5;exitY=0;exitDx=0;exitDy=0;entryX=0.5;entryY=1;entryDx=0;entryDy=0;" edge="1" parent="1" source="LcS4A14C7uai0QJFWlxs-46" target="LcS4A14C7uai0QJFWlxs-52">
          <mxGeometry relative="1" as="geometry" />
        </mxCell>
        <mxCell id="LcS4A14C7uai0QJFWlxs-46" value="GameStatsConsumer" style="rounded=0;whiteSpace=wrap;html=1;" vertex="1" parent="1">
          <mxGeometry x="660" y="730" width="120" height="60" as="geometry" />
        </mxCell>
        <mxCell id="LcS4A14C7uai0QJFWlxs-57" style="edgeStyle=orthogonalEdgeStyle;rounded=0;orthogonalLoop=1;jettySize=auto;html=1;exitX=0.5;exitY=0;exitDx=0;exitDy=0;" edge="1" parent="1" source="LcS4A14C7uai0QJFWlxs-50">
          <mxGeometry relative="1" as="geometry">
            <mxPoint x="720" y="530" as="targetPoint" />
          </mxGeometry>
        </mxCell>
        <mxCell id="LcS4A14C7uai0QJFWlxs-60" style="edgeStyle=orthogonalEdgeStyle;rounded=0;orthogonalLoop=1;jettySize=auto;html=1;exitX=0;exitY=0.5;exitDx=0;exitDy=0;entryX=0.75;entryY=1;entryDx=0;entryDy=0;" edge="1" parent="1" source="LcS4A14C7uai0QJFWlxs-50" target="LcS4A14C7uai0QJFWlxs-2">
          <mxGeometry relative="1" as="geometry" />
        </mxCell>
        <mxCell id="LcS4A14C7uai0QJFWlxs-50" value="TeamStatsService" style="rounded=0;whiteSpace=wrap;html=1;" vertex="1" parent="1">
          <mxGeometry x="660" y="580" width="120" height="60" as="geometry" />
        </mxCell>
        <mxCell id="LcS4A14C7uai0QJFWlxs-54" style="edgeStyle=orthogonalEdgeStyle;rounded=0;orthogonalLoop=1;jettySize=auto;html=1;exitX=0.5;exitY=0;exitDx=0;exitDy=0;entryX=0.5;entryY=1;entryDx=0;entryDy=0;" edge="1" parent="1" source="LcS4A14C7uai0QJFWlxs-52">
          <mxGeometry relative="1" as="geometry">
            <mxPoint x="720" y="645" as="targetPoint" />
          </mxGeometry>
        </mxCell>
        <mxCell id="LcS4A14C7uai0QJFWlxs-52" value="Calls" style="text;html=1;align=center;verticalAlign=middle;whiteSpace=wrap;rounded=0;" vertex="1" parent="1">
          <mxGeometry x="690" y="665" width="60" height="30" as="geometry" />
        </mxCell>
        <mxCell id="LcS4A14C7uai0QJFWlxs-55" value="MLB API" style="aspect=fixed;sketch=0;html=1;dashed=0;whitespace=wrap;verticalLabelPosition=bottom;verticalAlign=top;fillColor=#2875E2;strokeColor=#ffffff;points=[[0.005,0.63,0],[0.1,0.2,0],[0.9,0.2,0],[0.5,0,0],[0.995,0.63,0],[0.72,0.99,0],[0.5,1,0],[0.28,0.99,0]];shape=mxgraph.kubernetes.icon2;prIcon=api" vertex="1" parent="1">
          <mxGeometry x="695" y="460" width="50" height="48" as="geometry" />
        </mxCell>
      </root>
    </mxGraphModel>
  </diagram>
</mxfile>
